<?xml version="1.0" encoding="utf-8"?>
<!-- Generator: Adobe Illustrator 27.0.0, SVG Export Plug-In . SVG Version: 6.00 Build 0)  -->
<svg version="1.1" id="Layer_1" xmlns="http://www.w3.org/2000/svg" xmlns:xlink="http://www.w3.org/1999/xlink" x="0px" y="0px"
	 viewBox="0 0 800 800" style="enable-background:new 0 0 800 800;" xml:space="preserve">
<style type="text/css">
	.st0{fill:#AFB3B7;}
	.st1{fill:none;}
</style>
<path class="st0" d="M671,342.4c14.2-43.1,9.2-90.2-13.8-129.3c-34.6-60-103.9-90.8-171.6-76.4c-59.1-65.7-160.3-71-226-11.9
	c-20.8,18.7-36.4,42.6-45.1,69.3C128.3,212.3,73.1,297,91.3,383.4c5.8,27.5,18.8,53.1,37.6,74c-14.3,43-9.4,90.1,13.5,129.2
	c34.6,60.1,104,91.1,171.8,76.7c30.1,34,73.5,53.4,118.9,53.1c69.2,0,130.6-44.5,152.1-110.4c44.5-9.1,82.8-37,105.2-76.4
	c35-59.9,27.1-135.5-19.5-186.9V342.4z M621.7,233.8c13.8,24,18.8,52,14.2,79.3c-0.8-0.6-2.5-1.5-3.6-2.2L506,238.1
	c-6.5-3.6-14.3-3.6-20.8,0l-147.6,85.3v-62.3l121.9-70.7c56.6-32.8,129.1-13.4,161.9,43.2l0,0l0.1,0.2L621.7,233.8z M337.9,364.1
	l62.3-36l62.3,36v71.6l-62.3,36l-62.3-36L337.9,364.1z M366.8,125.2c27.8,0,54.7,9.7,76,27.5c-0.9,0.4-2.6,1.5-3.9,2.1l-126.2,72.5
	c-6.4,3.7-10.4,10.6-10.3,18v170.5l-54.2-31.3v-141C248.1,178,301,124.7,366.5,124.5h0l0.2,0L366.8,125.2z M145.3,291.3L145.3,291.3
	c13.9-24,35.7-42.4,61.7-52v149.7c0,7.4,3.9,14.3,10.3,18l147.2,84.9l-54.4,31.5l-121.5-70.2C131.9,420.4,112.5,347.9,145.3,291.3z
	 M178.3,566.1L178.3,566.1c-13.9-23.9-18.9-52-14.2-79.3c0.8,0.6,2.6,1.5,3.7,2.2l125.9,72.8c6.5,3.6,14.3,3.6,20.8,0l147.2-85.3
	v62.6l-121.6,70.4C283.5,641.9,211.2,622.6,178.3,566.1L178.3,566.1z M433.2,674.9c-27.7,0-54.6-9.7-75.8-27.5
	c0.8-0.4,2.8-1.5,3.9-2.1l125.9-72.6c6.5-3.6,10.5-10.6,10.3-18V384.5l54.2,31.3v140.8c0,65.5-53,118.6-118.5,118.6V674.9z
	 M654.7,508.7c-13.9,24-35.7,42.3-61.7,51.8V410.8c0.1-7.4-3.8-14.3-10.2-18l0,0l-147.6-84.9l54.2-31.3l121.9,70.3
	c56.7,32.7,76.1,105.2,43.3,161.8c0,0,0,0,0,0l-0.1,0.1L654.7,508.7z"/>
<rect class="st1" width="800" height="800"/>
</svg>
